<svg id="Layer_1" data-name="Layer 1" xmlns="http://www.w3.org/2000/svg" viewBox="0 0 409.77 166.49"><defs><style>.cls-1{fill:#232323;}</style></defs><path class="cls-1" d="M197.85,99.6,162.32,71.86a9.57,9.57,0,0,1-1.65-13.44L164.91,53h0a6,6,0,0,1-5.18-4.62A6.07,6.07,0,0,1,161,43.14l33.2-41.58A3.94,3.94,0,0,1,198.1.09a3.78,3.78,0,0,1,3,3.66l.18,9.39a3.79,3.79,0,0,1-.8,2.42L176.94,45.7A1.44,1.44,0,0,0,178.08,48h43.17a5,5,0,0,1,5,5h-53A4.22,4.22,0,0,0,170,54.66l-5.34,6.84a4.57,4.57,0,0,0,.79,6.42L197,92.58a5,5,0,0,1,.87,7ZM196.2,9.31a.8.8,0,0,0-1.42-.48l-30,37.55a1,1,0,0,0-.12,1.07,1,1,0,0,0,.92.58h1.67a3.11,3.11,0,0,0,2.44-1.19l25.81-33.07a3.4,3.4,0,0,0,.72-2.17Z"/><path class="cls-1" d="M212.5,110.45a4.06,4.06,0,0,1-1.68-.38,4,4,0,0,1-2.17-3.56l-.17-9.21a3.85,3.85,0,0,1,.8-2.42l23.45-30a1.5,1.5,0,0,0-1.18-2.43H188.44a4.94,4.94,0,0,1-4.94-4.94h0a.06.06,0,0,1,.06-.06h52.87a4.29,4.29,0,0,0,3.39-1.65L245.07,49a4.75,4.75,0,0,0,1-2.39,4.54,4.54,0,0,0-1.73-4.11L212.72,17.83a5,5,0,0,1-.85-6.94h0a.06.06,0,0,1,.08,0l35.5,27.71a9.71,9.71,0,0,1,3.26,10.52,7.72,7.72,0,0,1-1.38,2.59l-4.46,5.72s0,0,0,0a6.09,6.09,0,0,1,3.88,9.82L215.46,109A3.76,3.76,0,0,1,212.5,110.45Zm1-11.59,0,2.1a.85.85,0,0,0,1.52.52l29.8-37.31A1,1,0,0,0,245,63a1,1,0,0,0-1-.61h-1.51A3.16,3.16,0,0,0,240,63.63l-25.78,33A3.46,3.46,0,0,0,213.51,98.86Z"/><path class="cls-1" d="M11.86,137.54H37.43v-4.69H11.86a16.21,16.21,0,0,0-4.6.56A8.49,8.49,0,0,0,4.17,135a6,6,0,0,0-1.73,2.41,8.57,8.57,0,0,0-.54,3.11v16.42A8.57,8.57,0,0,0,2.44,160a6,6,0,0,0,1.73,2.41A8.33,8.33,0,0,0,7.26,164a16.21,16.21,0,0,0,4.6.56H37.43V159.9H11.86c-2.64,0-4-1-4-2.93v-16.5C7.89,138.51,9.22,137.54,11.86,137.54Z"/><path class="cls-1" d="M11.86,139.43H39.33V131H11.86a18.08,18.08,0,0,0-5.14.64,10.47,10.47,0,0,0-3.78,1.95,7.84,7.84,0,0,0-2.27,3.18A10.3,10.3,0,0,0,0,140.51v16.42a10.3,10.3,0,0,0,.67,3.79,7.84,7.84,0,0,0,2.27,3.18,10.47,10.47,0,0,0,3.78,1.95,18.08,18.08,0,0,0,5.14.64H39.33V158H11.86c-2.07,0-2.07-.6-2.07-1v-16.5C9.79,140,9.79,139.43,11.86,139.43ZM35.53,162.7H11.86a14.58,14.58,0,0,1-4.06-.49A6.5,6.5,0,0,1,5.4,161a4,4,0,0,1-1.19-1.65,6.53,6.53,0,0,1-.42-2.42V140.51a6.57,6.57,0,0,1,.42-2.42,4.09,4.09,0,0,1,1.19-1.66,6.65,6.65,0,0,1,2.4-1.2,14.58,14.58,0,0,1,4.06-.49H35.53v.9H11.86c-5.44,0-5.86,3.69-5.86,4.83V157c0,1.14.42,4.83,5.86,4.83H35.53Z"/><path class="cls-1" d="M85.47,137.4A5.88,5.88,0,0,0,83.73,135a8.33,8.33,0,0,0-3.09-1.58,16.11,16.11,0,0,0-4.6-.56h-21a16.21,16.21,0,0,0-4.6.56A8.49,8.49,0,0,0,47.38,135a6,6,0,0,0-1.73,2.41,8.57,8.57,0,0,0-.54,3.11v16.42a8.57,8.57,0,0,0,.54,3.11,6,6,0,0,0,1.73,2.41A8.33,8.33,0,0,0,50.47,164a16.21,16.21,0,0,0,4.6.56H76a16.11,16.11,0,0,0,4.6-.56,8.18,8.18,0,0,0,3.09-1.58A5.88,5.88,0,0,0,85.47,160a8.57,8.57,0,0,0,.54-3.11V140.51A8.57,8.57,0,0,0,85.47,137.4ZM80,140.47V157c0,2-1.32,2.93-4,2.93h-21c-2.64,0-4-1-4-2.93v-16.5c0-2,1.33-2.93,4-2.93H76C78.69,137.54,80,138.51,80,140.47Z"/><path class="cls-1" d="M76,135.64h-21c-5.44,0-5.86,3.69-5.86,4.83V157c0,1.14.42,4.83,5.86,4.83H76c5.45,0,5.87-3.69,5.87-4.83v-16.5C81.91,139.33,81.49,135.64,76,135.64ZM78.11,157c0,.44,0,1-2.07,1h-21c-2.07,0-2.07-.6-2.07-1v-16.5c0-.44,0-1,2.07-1H76c2.07,0,2.07.6,2.07,1ZM76,135.64h-21c-5.44,0-5.86,3.69-5.86,4.83V157c0,1.14.42,4.83,5.86,4.83H76c5.45,0,5.87-3.69,5.87-4.83v-16.5C81.91,139.33,81.49,135.64,76,135.64ZM78.11,157c0,.44,0,1-2.07,1h-21c-2.07,0-2.07-.6-2.07-1v-16.5c0-.44,0-1,2.07-1H76c2.07,0,2.07.6,2.07,1Zm9.13-20.26A7.9,7.9,0,0,0,85,133.54a10.47,10.47,0,0,0-3.78-1.95A18.08,18.08,0,0,0,76,131h-21a18.08,18.08,0,0,0-5.14.64,10.34,10.34,0,0,0-3.77,1.95,7.77,7.77,0,0,0-2.28,3.18,10.3,10.3,0,0,0-.67,3.79v16.42a10.3,10.3,0,0,0,.67,3.79,7.84,7.84,0,0,0,2.27,3.18,10.47,10.47,0,0,0,3.78,1.95,18.08,18.08,0,0,0,5.14.64H76a18.08,18.08,0,0,0,5.14-.64A10.32,10.32,0,0,0,85,163.9a7.9,7.9,0,0,0,2.28-3.17,10.61,10.61,0,0,0,.67-3.8V140.51A10.61,10.61,0,0,0,87.24,136.71Zm-3.13,20.22a6.74,6.74,0,0,1-.41,2.42A4,4,0,0,1,82.5,161a6.5,6.5,0,0,1-2.4,1.21,14.53,14.53,0,0,1-4.06.49h-21a14.58,14.58,0,0,1-4.06-.49,6.5,6.5,0,0,1-2.4-1.21,4,4,0,0,1-1.19-1.65,6.53,6.53,0,0,1-.42-2.42V140.51a6.57,6.57,0,0,1,.42-2.42,4.09,4.09,0,0,1,1.19-1.66,6.65,6.65,0,0,1,2.4-1.2,14.63,14.63,0,0,1,4.06-.49H76a14.58,14.58,0,0,1,4.06.49,6.65,6.65,0,0,1,2.4,1.2,4.12,4.12,0,0,1,1.2,1.66,6.74,6.74,0,0,1,.41,2.42ZM76,135.64h-21c-5.44,0-5.86,3.69-5.86,4.83V157c0,1.14.42,4.83,5.86,4.83H76c5.45,0,5.87-3.69,5.87-4.83v-16.5C81.91,139.33,81.49,135.64,76,135.64ZM78.11,157c0,.44,0,1-2.07,1h-21c-2.07,0-2.07-.6-2.07-1v-16.5c0-.44,0-1,2.07-1H76c2.07,0,2.07.6,2.07,1Z"/><path class="cls-1" d="M134.74,138.12a6.33,6.33,0,0,0-1.91-2.93,8.84,8.84,0,0,0-3.61-1.76,22.89,22.89,0,0,0-5.64-.58H94.49v31.74h29.09a22.89,22.89,0,0,0,5.64-.58,9.2,9.2,0,0,0,3.61-1.71,6.16,6.16,0,0,0,1.91-2.82,12.42,12.42,0,0,0,.57-3.95v-13.3A13.33,13.33,0,0,0,134.74,138.12ZM123.58,159.9H100.49V137.54h23.09a14.4,14.4,0,0,1,2.78.22,3.93,3.93,0,0,1,1.75.77A2.87,2.87,0,0,1,129,140a8,8,0,0,1,.27,2.26v13.26a7.08,7.08,0,0,1-.27,2.11,2.61,2.61,0,0,1-.93,1.36,4.28,4.28,0,0,1-1.75.72A14.4,14.4,0,0,1,123.58,159.9Z"/><path class="cls-1" d="M130.86,139.43a4.79,4.79,0,0,0-1.53-2.36,5.83,5.83,0,0,0-2.6-1.17,15.73,15.73,0,0,0-3.15-.26h-25V161.8h25a15.66,15.66,0,0,0,3.15-.26,6.23,6.23,0,0,0,2.53-1.07,4.47,4.47,0,0,0,1.59-2.29,9,9,0,0,0,.36-2.69V142.23A9.9,9.9,0,0,0,130.86,139.43Zm-3.45,16.06a5.3,5.3,0,0,1-.18,1.54.83.83,0,0,1-.26.42,2.65,2.65,0,0,1-1,.37,12.85,12.85,0,0,1-2.4.19H102.39V139.43h21.19a12.65,12.65,0,0,1,2.39.19,2.12,2.12,0,0,1,.93.37,1,1,0,0,1,.32.53,6,6,0,0,1,.19,1.71Zm3.45-16.06a4.79,4.79,0,0,0-1.53-2.36,5.83,5.83,0,0,0-2.6-1.17,15.73,15.73,0,0,0-3.15-.26h-25V161.8h25a15.66,15.66,0,0,0,3.15-.26,6.23,6.23,0,0,0,2.53-1.07,4.47,4.47,0,0,0,1.59-2.29,9,9,0,0,0,.36-2.69V142.23A9.9,9.9,0,0,0,130.86,139.43Zm-3.45,16.06a5.3,5.3,0,0,1-.18,1.54.83.83,0,0,1-.26.42,2.65,2.65,0,0,1-1,.37,12.85,12.85,0,0,1-2.4.19H102.39V139.43h21.19a12.65,12.65,0,0,1,2.39.19,2.12,2.12,0,0,1,.93.37,1,1,0,0,1,.32.53,6,6,0,0,1,.19,1.71Zm9.14-18a8.21,8.21,0,0,0-2.48-3.78,10.81,10.81,0,0,0-4.37-2.17,24.87,24.87,0,0,0-6.12-.64h-31v35.54h31a24.82,24.82,0,0,0,6.12-.64,11,11,0,0,0,4.34-2.1,8,8,0,0,0,2.51-3.67,14.73,14.73,0,0,0,.66-4.55v-13.3A15.26,15.26,0,0,0,136.55,137.54Zm-3.14,18a10.59,10.59,0,0,1-.47,3.34,4.2,4.2,0,0,1-1.33,2,7.52,7.52,0,0,1-2.87,1.33,21,21,0,0,1-5.16.53H96.39v-28h27.19a21,21,0,0,1,5.16.53,6.84,6.84,0,0,1,2.84,1.36,4.45,4.45,0,0,1,1.36,2.07,11.84,11.84,0,0,1,.47,3.53Zm-4.08-18.46a5.83,5.83,0,0,0-2.6-1.17,15.73,15.73,0,0,0-3.15-.26h-25V161.8h25a15.66,15.66,0,0,0,3.15-.26,6.23,6.23,0,0,0,2.53-1.07,4.47,4.47,0,0,0,1.59-2.29,9,9,0,0,0,.36-2.69V142.23a9.9,9.9,0,0,0-.35-2.8A4.79,4.79,0,0,0,129.33,137.07Zm-1.92,18.42a5.3,5.3,0,0,1-.18,1.54.83.83,0,0,1-.26.42,2.65,2.65,0,0,1-1,.37,12.85,12.85,0,0,1-2.4.19H102.39V139.43h21.19a12.65,12.65,0,0,1,2.39.19,2.12,2.12,0,0,1,.93.37,1,1,0,0,1,.32.53,6,6,0,0,1,.19,1.71Z"/><path class="cls-1" d="M176.44,137.54v-4.69H143.79v31.74h32.65V159.9H149.79v-9.74h25.3v-4.69h-25.3v-7.93Z"/><path class="cls-1" d="M178.34,139.43V131H141.89v35.54h36.45V158H151.69v-5.95H177v-8.49h-25.3v-4.14Zm-5.15,8.83h-25.3V161.8h26.66v.9H145.69v-28h28.86v.9H147.89v11.73h25.3Z"/><path class="cls-1" d="M221.32,142.77v-2.26a8.57,8.57,0,0,0-.54-3.11,6,6,0,0,0-1.73-2.41,8.49,8.49,0,0,0-3.09-1.58,16.21,16.21,0,0,0-4.6-.56h-27v31.74h6V150.43h16.73l7.44,14.16H221l-7.48-14.25c2.82-.27,4.84-1.09,6-2.45A7.5,7.5,0,0,0,221.32,142.77Zm-30.93-5.23h21c2.64,0,4,1,4,2.93v2.34c0,2-1.32,2.93-4,2.93h-21Z"/><path class="cls-1" d="M211.36,135.64H188.49v12h22.87c5.44,0,5.86-3.69,5.86-4.83v-2.34C217.22,139.33,216.8,135.64,211.36,135.64Zm4,7.17c0,2-1.32,2.93-4,2.93h-21v-8.2h21c2.64,0,4,1,4,2.93Zm-4-7.17H188.49v12h22.87c5.44,0,5.86-3.69,5.86-4.83v-2.34C217.22,139.33,216.8,135.64,211.36,135.64Zm4,7.17c0,2-1.32,2.93-4,2.93h-21v-8.2h21c2.64,0,4,1,4,2.93Zm1.05,8.95a8.93,8.93,0,0,0,4.57-2.62,9.3,9.3,0,0,0,2.28-6.37v-2.26a10.3,10.3,0,0,0-.67-3.79,7.77,7.77,0,0,0-2.28-3.18,10.34,10.34,0,0,0-3.77-1.95,18.08,18.08,0,0,0-5.14-.64H182.49v35.54h9.79V152.33H206l7.44,14.16H224.1ZM188.49,162.7h-2.2v-28h25.07a14.5,14.5,0,0,1,4,.49,6.62,6.62,0,0,1,2.41,1.2,4.19,4.19,0,0,1,1.19,1.66,6.78,6.78,0,0,1,.41,2.42v2.26a5.56,5.56,0,0,1-1.33,3.86c-.87,1-2.48,1.6-4.8,1.82l-2.81.27,7.34,14h-2.11l-7.45-14.16H188.49Zm28.73-19.89v-2.34c0-1.14-.42-4.83-5.86-4.83H188.49v12h22.87C216.8,147.64,217.22,144,217.22,142.81Zm-26.83-5.27h21c2.64,0,4,1,4,2.93v2.34c0,2-1.32,2.93-4,2.93h-21Z"/><path class="cls-1" d="M266.43,149.89a6,6,0,0,0-1.74-2.41,8.49,8.49,0,0,0-3.09-1.58,16.48,16.48,0,0,0-4.6-.56H238.33c-2.64,0-4-1-4-2.93v-1.94c0-2,1.33-2.93,4-2.93h26.88v-4.69H238.33a16.16,16.16,0,0,0-4.6.56,8.49,8.49,0,0,0-3.09,1.58,6,6,0,0,0-1.73,2.41,8.57,8.57,0,0,0-.55,3.11v1.85a8.57,8.57,0,0,0,.55,3.11,6,6,0,0,0,1.73,2.42,8.48,8.48,0,0,0,3.09,1.57,16.13,16.13,0,0,0,4.6.57H257q4,0,4,2.93v4c0,2-1.32,2.93-4,2.93H229.4v4.69H257a16.11,16.11,0,0,0,4.6-.56,8.33,8.33,0,0,0,3.09-1.58,5.88,5.88,0,0,0,1.74-2.41,8.57,8.57,0,0,0,.54-3.11V153A8.6,8.6,0,0,0,266.43,149.89Z"/><path class="cls-1" d="M268.2,149.21a8,8,0,0,0-2.28-3.18,10.47,10.47,0,0,0-3.78-1.95,18.45,18.45,0,0,0-5.14-.64H238.33c-2.07,0-2.07-.6-2.07-1v-1.94c0-.44,0-1,2.07-1h28.78V131H238.33a18.08,18.08,0,0,0-5.14.64,10.47,10.47,0,0,0-3.78,1.95,8,8,0,0,0-2.28,3.18,10.51,10.51,0,0,0-.66,3.79v1.85a10.6,10.6,0,0,0,.66,3.8,8,8,0,0,0,2.28,3.17,10.32,10.32,0,0,0,3.78,1.95,18.06,18.06,0,0,0,5.14.65H257c2.07,0,2.07.59,2.07,1v4c0,.44,0,1-2.07,1H227.5v8.48H257a18.08,18.08,0,0,0,5.14-.64,10.32,10.32,0,0,0,3.78-1.95,7.9,7.9,0,0,0,2.28-3.17,10.61,10.61,0,0,0,.67-3.8V153A10.51,10.51,0,0,0,268.2,149.21Zm-3.13,7.72a6.74,6.74,0,0,1-.41,2.42,4,4,0,0,1-1.2,1.65,6.5,6.5,0,0,1-2.4,1.21,14.53,14.53,0,0,1-4.06.49H231.3v-.9H257c5.45,0,5.87-3.69,5.87-4.83v-4c0-1.13-.42-4.83-5.87-4.83H238.33a14.21,14.21,0,0,1-4.06-.49,6.5,6.5,0,0,1-2.4-1.2,3.91,3.91,0,0,1-1.19-1.65,6.62,6.62,0,0,1-.42-2.43v-1.85a6.57,6.57,0,0,1,.42-2.42,4,4,0,0,1,1.19-1.66,6.65,6.65,0,0,1,2.4-1.2,14.58,14.58,0,0,1,4.06-.49h25v.9h-25c-5.44,0-5.87,3.69-5.87,4.83v1.94c0,1.13.43,4.83,5.87,4.83H257a14.62,14.62,0,0,1,4.06.48,6.66,6.66,0,0,1,2.4,1.21,4,4,0,0,1,1.2,1.65,6.78,6.78,0,0,1,.41,2.42Z"/><path class="cls-1" d="M308.67,131.08v13.71H280.46V131.08H274v34.48h6.51V149.89h28.21v15.67h6.52V131.08Z"/><path class="cls-1" d="M358,131.08v26.2q0,3.19-4.31,3.19H332.23q-4.31,0-4.31-3.19v-26.2h-6.51v26.15a9.33,9.33,0,0,0,.58,3.38,6.51,6.51,0,0,0,1.89,2.62,9.09,9.09,0,0,0,3.36,1.72,17.58,17.58,0,0,0,5,.61H355a15.32,15.32,0,0,0,4.77-.61,6.87,6.87,0,0,0,2.89-1.72,5.56,5.56,0,0,0,1.42-2.62,14.11,14.11,0,0,0,.37-3.38V131.08Z"/><path class="cls-1" d="M408.49,149.27a7.06,7.06,0,0,0-3.23-1.83,4.74,4.74,0,0,0,3-1.94,6.38,6.38,0,0,0,1.1-3.79v-3.19a8,8,0,0,0-.59-3.11,5.75,5.75,0,0,0-1.84-2.35,8.9,8.9,0,0,0-3.28-1.47,20.28,20.28,0,0,0-4.87-.51H370.68v34.48h28.17a19.14,19.14,0,0,0,5.28-.61,9.41,9.41,0,0,0,3.36-1.64,5.72,5.72,0,0,0,1.76-2.38,7.71,7.71,0,0,0,.52-2.82v-5A5.21,5.21,0,0,0,408.49,149.27Zm-31.29-13.1h21.55a5.68,5.68,0,0,1,3.18.64,2.35,2.35,0,0,1,.88,2.06v3.57a2.37,2.37,0,0,1-.88,2.06,5.77,5.77,0,0,1-3.18.64H377.2Zm26.05,20.72a3.05,3.05,0,0,1-1.22,2.84,6.13,6.13,0,0,1-3.18.74H377.2V150.23h21.65a6.7,6.7,0,0,1,3.18.66,2.38,2.38,0,0,1,1.22,2.28Z"/></svg>